<mxfile host="65bd71144e" pages="2">
    <diagram id="PLNGbtFlkg2upx5_pPX7" name="Data Overview">
        <mxGraphModel dx="746" dy="422" grid="1" gridSize="10" guides="1" tooltips="1" connect="1" arrows="1" fold="1" page="1" pageScale="1" pageWidth="1100" pageHeight="850" math="0" shadow="0">
            <root>
                <mxCell id="0"/>
                <mxCell id="1" parent="0"/>
                <mxCell id="15" value="" style="rounded=0;whiteSpace=wrap;html=1;dashed=1;align=left;" parent="1" vertex="1">
                    <mxGeometry x="20" y="20" width="690" height="540" as="geometry"/>
                </mxCell>
                <mxCell id="6" value="Sever: SQL08" style="swimlane;startSize=23;dashed=1;" parent="1" vertex="1">
                    <mxGeometry x="60" y="150" width="240" height="300" as="geometry">
                        <mxRectangle x="30" y="180" width="80" height="30" as="alternateBounds"/>
                    </mxGeometry>
                </mxCell>
                <mxCell id="2" value="SQL Server: SQL08" style="swimlane;startSize=23;" parent="6" vertex="1">
                    <mxGeometry x="20" y="40" width="200" height="240" as="geometry">
                        <mxRectangle x="30" y="180" width="80" height="30" as="alternateBounds"/>
                    </mxGeometry>
                </mxCell>
                <mxCell id="3" value="&lt;b&gt;Database: SysproDocument&lt;/b&gt;" style="rounded=0;whiteSpace=wrap;html=1;align=center;" parent="2" vertex="1">
                    <mxGeometry x="10" y="90" width="180" height="30" as="geometry"/>
                </mxCell>
                <mxCell id="8" value="&lt;b&gt;Database: SysproCompany100&lt;/b&gt;" style="rounded=0;whiteSpace=wrap;html=1;align=center;" parent="2" vertex="1">
                    <mxGeometry x="10" y="40" width="180" height="30" as="geometry"/>
                </mxCell>
                <mxCell id="9" value="&lt;b&gt;Database: NotifiyEvents&lt;/b&gt;" style="rounded=0;whiteSpace=wrap;html=1;align=center;" parent="2" vertex="1">
                    <mxGeometry x="10" y="190" width="180" height="30" as="geometry"/>
                </mxCell>
                <mxCell id="67" value="&lt;b&gt;Database: Global&lt;/b&gt;" style="rounded=0;whiteSpace=wrap;html=1;align=center;" parent="2" vertex="1">
                    <mxGeometry x="10" y="140" width="180" height="30" as="geometry"/>
                </mxCell>
                <mxCell id="10" value="Sever: GWCApps" style="swimlane;startSize=23;dashed=1;" parent="1" vertex="1">
                    <mxGeometry x="350" y="270" width="330" height="200" as="geometry">
                        <mxRectangle x="30" y="180" width="80" height="30" as="alternateBounds"/>
                    </mxGeometry>
                </mxCell>
                <mxCell id="22" value="&lt;b&gt;&lt;font style=&quot;font-size: 16px;&quot;&gt;ASP.NET WEB API:&lt;br&gt;GW SendGrid API&lt;br&gt;&lt;/font&gt;&lt;/b&gt;" style="rounded=0;whiteSpace=wrap;html=1;" parent="10" vertex="1">
                    <mxGeometry x="100" y="120" width="170" height="60" as="geometry"/>
                </mxCell>
                <mxCell id="28" style="edgeStyle=none;rounded=0;html=1;exitX=0.5;exitY=1;exitDx=0;exitDy=0;entryX=0.5;entryY=0;entryDx=0;entryDy=0;startArrow=none;startFill=0;endArrow=classic;endFill=1;" parent="10" source="21" target="22" edge="1">
                    <mxGeometry relative="1" as="geometry"/>
                </mxCell>
                <mxCell id="21" value="&lt;b&gt;&lt;font style=&quot;font-size: 16px;&quot;&gt;.Net Service:&lt;br&gt;Invoice Automation&lt;br&gt;&lt;/font&gt;&lt;/b&gt;" style="rounded=0;whiteSpace=wrap;html=1;" parent="10" vertex="1">
                    <mxGeometry x="100" y="40" width="170" height="60" as="geometry"/>
                </mxCell>
                <mxCell id="16" value="In Network" style="text;strokeColor=none;fillColor=none;html=1;fontSize=24;fontStyle=1;verticalAlign=middle;align=center;dashed=1;" parent="1" vertex="1">
                    <mxGeometry x="50" y="20" width="100" height="40" as="geometry"/>
                </mxCell>
                <mxCell id="17" value="" style="rounded=0;whiteSpace=wrap;html=1;dashed=1;align=left;" parent="1" vertex="1">
                    <mxGeometry x="750" y="20" width="330" height="540" as="geometry"/>
                </mxCell>
                <mxCell id="18" value="Out of Network" style="text;strokeColor=none;fillColor=none;html=1;fontSize=24;fontStyle=1;verticalAlign=middle;align=center;dashed=1;" parent="1" vertex="1">
                    <mxGeometry x="810" y="20" width="100" height="40" as="geometry"/>
                </mxCell>
                <mxCell id="19" value="Sever: Syspro7" style="swimlane;startSize=23;dashed=1;" parent="1" vertex="1">
                    <mxGeometry x="350" y="150" width="330" height="110" as="geometry">
                        <mxRectangle x="30" y="180" width="80" height="30" as="alternateBounds"/>
                    </mxGeometry>
                </mxCell>
                <mxCell id="20" value="&lt;b&gt;&lt;font style=&quot;font-size: 16px;&quot;&gt;Syspro 8&lt;/font&gt;&lt;/b&gt;" style="rounded=0;whiteSpace=wrap;html=1;" parent="19" vertex="1">
                    <mxGeometry x="100" y="35" width="170" height="60" as="geometry"/>
                </mxCell>
                <mxCell id="27" style="edgeStyle=none;rounded=0;html=1;exitX=1;exitY=0.5;exitDx=0;exitDy=0;entryX=0;entryY=0.5;entryDx=0;entryDy=0;startArrow=classic;startFill=1;endArrow=classic;endFill=1;" parent="1" source="3" target="21" edge="1">
                    <mxGeometry relative="1" as="geometry">
                        <Array as="points">
                            <mxPoint x="320" y="295"/>
                            <mxPoint x="320" y="340"/>
                        </Array>
                    </mxGeometry>
                </mxCell>
                <mxCell id="30" value="SendGrid Endpoints: api.sendgrid.com/v3" style="swimlane;startSize=23;dashed=1;" parent="1" vertex="1">
                    <mxGeometry x="770" y="80" width="290" height="120" as="geometry">
                        <mxRectangle x="30" y="180" width="80" height="30" as="alternateBounds"/>
                    </mxGeometry>
                </mxCell>
                <mxCell id="34" value="&lt;b&gt;&lt;font style=&quot;font-size: 12px;&quot;&gt;/mail/send&lt;br&gt;&lt;/font&gt;&lt;/b&gt;" style="rounded=0;whiteSpace=wrap;html=1;" parent="1" vertex="1">
                    <mxGeometry x="840" y="130" width="150" height="30" as="geometry"/>
                </mxCell>
                <mxCell id="35" style="edgeStyle=none;rounded=0;html=1;exitX=1;exitY=0.5;exitDx=0;exitDy=0;entryX=0;entryY=0.5;entryDx=0;entryDy=0;fontSize=12;startArrow=none;startFill=0;endArrow=classic;endFill=1;" parent="1" source="22" target="34" edge="1">
                    <mxGeometry relative="1" as="geometry">
                        <Array as="points">
                            <mxPoint x="730" y="420"/>
                            <mxPoint x="730" y="145"/>
                        </Array>
                    </mxGeometry>
                </mxCell>
                <mxCell id="36" style="edgeStyle=none;rounded=0;html=1;exitX=1;exitY=0.75;exitDx=0;exitDy=0;entryX=0;entryY=0.25;entryDx=0;entryDy=0;fontSize=12;startArrow=none;startFill=0;endArrow=classic;endFill=1;" parent="1" source="8" target="21" edge="1">
                    <mxGeometry relative="1" as="geometry">
                        <Array as="points">
                            <mxPoint x="330" y="253"/>
                            <mxPoint x="330" y="325"/>
                        </Array>
                    </mxGeometry>
                </mxCell>
                <mxCell id="37" style="edgeStyle=none;rounded=0;html=1;exitX=1;exitY=0.25;exitDx=0;exitDy=0;entryX=0.002;entryY=0.572;entryDx=0;entryDy=0;entryPerimeter=0;fontSize=12;startArrow=classic;startFill=1;endArrow=classic;endFill=1;" parent="1" source="8" target="20" edge="1">
                    <mxGeometry relative="1" as="geometry">
                        <Array as="points">
                            <mxPoint x="330" y="238"/>
                            <mxPoint x="330" y="219"/>
                        </Array>
                    </mxGeometry>
                </mxCell>
                <mxCell id="38" style="edgeStyle=none;rounded=0;html=1;entryX=0.5;entryY=1;entryDx=0;entryDy=0;fontSize=12;startArrow=classic;startFill=1;endArrow=classic;endFill=1;exitX=0;exitY=0.5;exitDx=0;exitDy=0;" parent="1" source="22" target="9" edge="1">
                    <mxGeometry relative="1" as="geometry">
                        <mxPoint x="410" y="430" as="sourcePoint"/>
                        <Array as="points">
                            <mxPoint x="180" y="420"/>
                        </Array>
                    </mxGeometry>
                </mxCell>
                <mxCell id="40" style="edgeStyle=none;rounded=0;html=1;exitX=1;exitY=0.3333333333333333;exitDx=0;exitDy=0;exitPerimeter=0;fontSize=12;startArrow=none;startFill=0;endArrow=classic;endFill=1;entryX=1;entryY=0.5;entryDx=0;entryDy=0;" parent="1" source="39" target="20" edge="1">
                    <mxGeometry relative="1" as="geometry">
                        <Array as="points">
                            <mxPoint x="650" y="70"/>
                            <mxPoint x="650" y="215"/>
                        </Array>
                    </mxGeometry>
                </mxCell>
                <mxCell id="39" value="User" style="shape=umlActor;verticalLabelPosition=bottom;verticalAlign=top;html=1;outlineConnect=0;fontSize=12;strokeWidth=3;" parent="1" vertex="1">
                    <mxGeometry x="480" y="50" width="30" height="60" as="geometry"/>
                </mxCell>
                <mxCell id="41" style="edgeStyle=none;rounded=0;html=1;exitX=1;exitY=0.5;exitDx=0;exitDy=0;entryX=1;entryY=0.75;entryDx=0;entryDy=0;fontSize=12;startArrow=none;startFill=0;endArrow=classic;endFill=1;" parent="1" source="21" target="20" edge="1">
                    <mxGeometry relative="1" as="geometry">
                        <Array as="points">
                            <mxPoint x="650" y="340"/>
                            <mxPoint x="650" y="230"/>
                        </Array>
                    </mxGeometry>
                </mxCell>
                <mxCell id="68" style="edgeStyle=none;rounded=0;html=1;exitX=0;exitY=0.75;exitDx=0;exitDy=0;entryX=1;entryY=0.5;entryDx=0;entryDy=0;fontSize=12;startArrow=classic;startFill=1;endArrow=classic;endFill=1;" parent="1" source="21" target="67" edge="1">
                    <mxGeometry relative="1" as="geometry">
                        <Array as="points">
                            <mxPoint x="320" y="355"/>
                            <mxPoint x="320" y="345"/>
                        </Array>
                    </mxGeometry>
                </mxCell>
                <mxCell id="72" style="edgeStyle=none;rounded=0;html=1;exitX=1;exitY=0.5;exitDx=0;exitDy=0;entryX=0;entryY=0.3333333333333333;entryDx=0;entryDy=0;entryPerimeter=0;fontSize=12;startArrow=none;startFill=0;endArrow=classic;endFill=1;" parent="1" source="70" target="39" edge="1">
                    <mxGeometry relative="1" as="geometry">
                        <Array as="points">
                            <mxPoint x="330" y="95"/>
                            <mxPoint x="330" y="70"/>
                        </Array>
                    </mxGeometry>
                </mxCell>
                <mxCell id="70" value="&lt;b&gt;&lt;font style=&quot;font-size: 16px;&quot;&gt;Outlook&lt;/font&gt;&lt;/b&gt;" style="rounded=0;whiteSpace=wrap;html=1;" parent="1" vertex="1">
                    <mxGeometry x="95" y="70" width="170" height="50" as="geometry"/>
                </mxCell>
                <mxCell id="71" style="edgeStyle=none;rounded=0;html=1;exitX=0;exitY=0.5;exitDx=0;exitDy=0;entryX=0;entryY=0.5;entryDx=0;entryDy=0;fontSize=12;startArrow=none;startFill=0;endArrow=classic;endFill=1;" parent="1" source="67" target="70" edge="1">
                    <mxGeometry relative="1" as="geometry">
                        <Array as="points">
                            <mxPoint x="40" y="345"/>
                            <mxPoint x="40" y="95"/>
                        </Array>
                    </mxGeometry>
                </mxCell>
            </root>
        </mxGraphModel>
    </diagram>
    <diagram id="LS-65-0EPCFCGbCiASEp" name="System Overview">
        <mxGraphModel dx="746" dy="1249" grid="1" gridSize="10" guides="1" tooltips="1" connect="1" arrows="1" fold="1" page="1" pageScale="1" pageWidth="1169" pageHeight="827" math="0" shadow="0">
            <root>
                <mxCell id="0"/>
                <mxCell id="1" parent="0"/>
                <mxCell id="ZwO_-n4kn-tjhwLUYsLI-3" style="edgeStyle=orthogonalEdgeStyle;rounded=0;orthogonalLoop=1;jettySize=auto;html=1;entryX=0;entryY=0.5;entryDx=0;entryDy=0;" parent="1" source="ZwO_-n4kn-tjhwLUYsLI-1" target="ZwO_-n4kn-tjhwLUYsLI-2" edge="1">
                    <mxGeometry relative="1" as="geometry"/>
                </mxCell>
                <mxCell id="ZwO_-n4kn-tjhwLUYsLI-1" value="Invoicing Dispatch Notes" style="strokeWidth=2;html=1;shape=mxgraph.flowchart.delay;whiteSpace=wrap;fillColor=#e1d5e7;strokeColor=#9673a6;" parent="1" vertex="1">
                    <mxGeometry x="20" y="230" width="140" height="60" as="geometry"/>
                </mxCell>
                <mxCell id="ZwO_-n4kn-tjhwLUYsLI-5" style="edgeStyle=orthogonalEdgeStyle;rounded=0;orthogonalLoop=1;jettySize=auto;html=1;exitX=1;exitY=0.5;exitDx=0;exitDy=0;entryX=0;entryY=0.5;entryDx=0;entryDy=0;" parent="1" source="ZwO_-n4kn-tjhwLUYsLI-2" target="ZwO_-n4kn-tjhwLUYsLI-4" edge="1">
                    <mxGeometry relative="1" as="geometry"/>
                </mxCell>
                <mxCell id="ZwO_-n4kn-tjhwLUYsLI-39" style="edgeStyle=orthogonalEdgeStyle;rounded=0;orthogonalLoop=1;jettySize=auto;html=1;" parent="1" source="ZwO_-n4kn-tjhwLUYsLI-2" target="ZwO_-n4kn-tjhwLUYsLI-38" edge="1">
                    <mxGeometry relative="1" as="geometry"/>
                </mxCell>
                <mxCell id="ZwO_-n4kn-tjhwLUYsLI-40" value="Query Issue" style="edgeLabel;html=1;align=center;verticalAlign=middle;resizable=0;points=[];" parent="ZwO_-n4kn-tjhwLUYsLI-39" vertex="1" connectable="0">
                    <mxGeometry x="-0.66" relative="1" as="geometry">
                        <mxPoint y="-20" as="offset"/>
                    </mxGeometry>
                </mxCell>
                <mxCell id="ZwO_-n4kn-tjhwLUYsLI-2" value="A service will query for Dispatch Notes that are in a Status 7 and the parent Sales Order does not have a deposit on the order." style="rounded=1;whiteSpace=wrap;html=1;absoluteArcSize=1;arcSize=14;strokeWidth=2;fillColor=#fff2cc;strokeColor=#d6b656;" parent="1" vertex="1">
                    <mxGeometry x="240" y="210" width="210" height="100" as="geometry"/>
                </mxCell>
                <mxCell id="ZwO_-n4kn-tjhwLUYsLI-7" style="edgeStyle=orthogonalEdgeStyle;rounded=0;orthogonalLoop=1;jettySize=auto;html=1;entryX=0;entryY=0.5;entryDx=0;entryDy=0;entryPerimeter=0;exitX=0.5;exitY=1;exitDx=0;exitDy=0;" parent="1" source="ZwO_-n4kn-tjhwLUYsLI-4" target="ZwO_-n4kn-tjhwLUYsLI-6" edge="1">
                    <mxGeometry relative="1" as="geometry"/>
                </mxCell>
                <mxCell id="ZwO_-n4kn-tjhwLUYsLI-8" value="On Success" style="edgeLabel;html=1;align=center;verticalAlign=middle;resizable=0;points=[];" parent="ZwO_-n4kn-tjhwLUYsLI-7" vertex="1" connectable="0">
                    <mxGeometry x="-0.4154" y="4" relative="1" as="geometry">
                        <mxPoint x="1" y="-3" as="offset"/>
                    </mxGeometry>
                </mxCell>
                <mxCell id="ZwO_-n4kn-tjhwLUYsLI-10" style="edgeStyle=orthogonalEdgeStyle;rounded=0;orthogonalLoop=1;jettySize=auto;html=1;entryX=0;entryY=0.5;entryDx=0;entryDy=0;exitX=1;exitY=0.5;exitDx=0;exitDy=0;" parent="1" source="ZwO_-n4kn-tjhwLUYsLI-4" target="ZwO_-n4kn-tjhwLUYsLI-9" edge="1">
                    <mxGeometry relative="1" as="geometry">
                        <mxPoint x="910" y="320" as="targetPoint"/>
                        <Array as="points">
                            <mxPoint x="910" y="260"/>
                            <mxPoint x="910" y="350"/>
                        </Array>
                    </mxGeometry>
                </mxCell>
                <mxCell id="ZwO_-n4kn-tjhwLUYsLI-35" value="Upon Successful&lt;br&gt;Invoice" style="edgeLabel;html=1;align=center;verticalAlign=middle;resizable=0;points=[];" parent="ZwO_-n4kn-tjhwLUYsLI-10" vertex="1" connectable="0">
                    <mxGeometry x="-0.3667" y="1" relative="1" as="geometry">
                        <mxPoint x="-23" y="1" as="offset"/>
                    </mxGeometry>
                </mxCell>
                <mxCell id="ZwO_-n4kn-tjhwLUYsLI-42" style="edgeStyle=orthogonalEdgeStyle;rounded=0;orthogonalLoop=1;jettySize=auto;html=1;entryX=0.5;entryY=1;entryDx=0;entryDy=0;" parent="1" source="ZwO_-n4kn-tjhwLUYsLI-4" target="ZwO_-n4kn-tjhwLUYsLI-41" edge="1">
                    <mxGeometry relative="1" as="geometry"/>
                </mxCell>
                <mxCell id="ZwO_-n4kn-tjhwLUYsLI-4" value="Of the Dipsatched Notes that have been fetched, the Service will individually Invoice each one with Syspro." style="rounded=1;whiteSpace=wrap;html=1;absoluteArcSize=1;arcSize=14;strokeWidth=2;fillColor=#fff2cc;strokeColor=#d6b656;" parent="1" vertex="1">
                    <mxGeometry x="520" y="210" width="210" height="100" as="geometry"/>
                </mxCell>
                <mxCell id="ZwO_-n4kn-tjhwLUYsLI-6" value="Invoice Available in Syspro" style="strokeWidth=2;html=1;shape=mxgraph.flowchart.start_2;whiteSpace=wrap;fillColor=#d5e8d4;strokeColor=#82b366;" parent="1" vertex="1">
                    <mxGeometry x="780" y="300" width="100" height="100" as="geometry"/>
                </mxCell>
                <mxCell id="ZwO_-n4kn-tjhwLUYsLI-37" style="edgeStyle=orthogonalEdgeStyle;rounded=0;orthogonalLoop=1;jettySize=auto;html=1;entryX=0;entryY=0.5;entryDx=0;entryDy=0;" parent="1" source="ZwO_-n4kn-tjhwLUYsLI-9" target="ZwO_-n4kn-tjhwLUYsLI-36" edge="1">
                    <mxGeometry relative="1" as="geometry"/>
                </mxCell>
                <mxCell id="ZwO_-n4kn-tjhwLUYsLI-47" style="edgeStyle=orthogonalEdgeStyle;rounded=0;orthogonalLoop=1;jettySize=auto;html=1;entryX=0.5;entryY=1;entryDx=0;entryDy=0;" parent="1" source="ZwO_-n4kn-tjhwLUYsLI-9" target="ZwO_-n4kn-tjhwLUYsLI-46" edge="1">
                    <mxGeometry relative="1" as="geometry"/>
                </mxCell>
                <mxCell id="ZwO_-n4kn-tjhwLUYsLI-49" value="&lt;b&gt;Service Side&lt;/b&gt;" style="edgeLabel;html=1;align=center;verticalAlign=middle;resizable=0;points=[];" parent="ZwO_-n4kn-tjhwLUYsLI-47" vertex="1" connectable="0">
                    <mxGeometry x="-0.2125" y="-2" relative="1" as="geometry">
                        <mxPoint x="-2" y="-8" as="offset"/>
                    </mxGeometry>
                </mxCell>
                <mxCell id="ZwO_-n4kn-tjhwLUYsLI-55" style="edgeStyle=orthogonalEdgeStyle;rounded=0;orthogonalLoop=1;jettySize=auto;html=1;entryX=0.5;entryY=0;entryDx=0;entryDy=0;" parent="1" source="ZwO_-n4kn-tjhwLUYsLI-9" target="ZwO_-n4kn-tjhwLUYsLI-54" edge="1">
                    <mxGeometry relative="1" as="geometry"/>
                </mxCell>
                <mxCell id="ZwO_-n4kn-tjhwLUYsLI-56" value="&lt;b&gt;Web Page Side&lt;/b&gt;" style="edgeLabel;html=1;align=center;verticalAlign=middle;resizable=0;points=[];" parent="ZwO_-n4kn-tjhwLUYsLI-55" vertex="1" connectable="0">
                    <mxGeometry x="-0.2875" relative="1" as="geometry">
                        <mxPoint as="offset"/>
                    </mxGeometry>
                </mxCell>
                <mxCell id="ZwO_-n4kn-tjhwLUYsLI-9" value="Of the successful Invoices, create Invoice document utilizing the Invoice format within Syspro. A copy of this document will be dropped in the Mfiles location." style="rounded=1;whiteSpace=wrap;html=1;absoluteArcSize=1;arcSize=14;strokeWidth=2;fillColor=#fff2cc;strokeColor=#d6b656;" parent="1" vertex="1">
                    <mxGeometry x="970" y="300" width="210" height="100" as="geometry"/>
                </mxCell>
                <mxCell id="ZwO_-n4kn-tjhwLUYsLI-13" style="edgeStyle=orthogonalEdgeStyle;rounded=0;orthogonalLoop=1;jettySize=auto;html=1;entryX=0;entryY=0.5;entryDx=0;entryDy=0;" parent="1" source="ZwO_-n4kn-tjhwLUYsLI-11" target="ZwO_-n4kn-tjhwLUYsLI-12" edge="1">
                    <mxGeometry relative="1" as="geometry"/>
                </mxCell>
                <mxCell id="ZwO_-n4kn-tjhwLUYsLI-11" value="Invoicing Sales Order" style="strokeWidth=2;html=1;shape=mxgraph.flowchart.delay;whiteSpace=wrap;fillColor=#e1d5e7;strokeColor=#9673a6;" parent="1" vertex="1">
                    <mxGeometry x="20" y="470" width="140" height="60" as="geometry"/>
                </mxCell>
                <mxCell id="ZwO_-n4kn-tjhwLUYsLI-15" value="" style="edgeStyle=orthogonalEdgeStyle;rounded=0;orthogonalLoop=1;jettySize=auto;html=1;" parent="1" source="ZwO_-n4kn-tjhwLUYsLI-12" target="ZwO_-n4kn-tjhwLUYsLI-14" edge="1">
                    <mxGeometry relative="1" as="geometry"/>
                </mxCell>
                <mxCell id="ZwO_-n4kn-tjhwLUYsLI-25" value="Sales Order&lt;br&gt;Queried" style="edgeLabel;html=1;align=center;verticalAlign=middle;resizable=0;points=[];" parent="ZwO_-n4kn-tjhwLUYsLI-15" vertex="1" connectable="0">
                    <mxGeometry x="0.294" y="-2" relative="1" as="geometry">
                        <mxPoint x="-12" y="-2" as="offset"/>
                    </mxGeometry>
                </mxCell>
                <mxCell id="ZwO_-n4kn-tjhwLUYsLI-27" style="edgeStyle=orthogonalEdgeStyle;rounded=0;orthogonalLoop=1;jettySize=auto;html=1;entryX=0.5;entryY=0;entryDx=0;entryDy=0;" parent="1" source="ZwO_-n4kn-tjhwLUYsLI-12" target="ZwO_-n4kn-tjhwLUYsLI-26" edge="1">
                    <mxGeometry relative="1" as="geometry"/>
                </mxCell>
                <mxCell id="ZwO_-n4kn-tjhwLUYsLI-28" value="Query Issues" style="edgeLabel;html=1;align=center;verticalAlign=middle;resizable=0;points=[];" parent="ZwO_-n4kn-tjhwLUYsLI-27" vertex="1" connectable="0">
                    <mxGeometry x="-0.2667" relative="1" as="geometry">
                        <mxPoint as="offset"/>
                    </mxGeometry>
                </mxCell>
                <mxCell id="ZwO_-n4kn-tjhwLUYsLI-12" value="Web page will have a field to input a Sales Order to look up. Button to initiate the search." style="rounded=1;whiteSpace=wrap;html=1;absoluteArcSize=1;arcSize=14;strokeWidth=2;fillColor=#fff2cc;strokeColor=#d6b656;" parent="1" vertex="1">
                    <mxGeometry x="265" y="450" width="140" height="100" as="geometry"/>
                </mxCell>
                <mxCell id="ZwO_-n4kn-tjhwLUYsLI-17" style="edgeStyle=orthogonalEdgeStyle;rounded=0;orthogonalLoop=1;jettySize=auto;html=1;entryX=0.5;entryY=0;entryDx=0;entryDy=0;" parent="1" source="ZwO_-n4kn-tjhwLUYsLI-14" target="ZwO_-n4kn-tjhwLUYsLI-16" edge="1">
                    <mxGeometry relative="1" as="geometry"/>
                </mxCell>
                <mxCell id="ZwO_-n4kn-tjhwLUYsLI-18" value="Queried Sales Order &lt;br&gt;can not be invoiced" style="edgeLabel;html=1;align=center;verticalAlign=middle;resizable=0;points=[];" parent="ZwO_-n4kn-tjhwLUYsLI-17" vertex="1" connectable="0">
                    <mxGeometry x="-0.2875" y="-4" relative="1" as="geometry">
                        <mxPoint x="4" as="offset"/>
                    </mxGeometry>
                </mxCell>
                <mxCell id="ZwO_-n4kn-tjhwLUYsLI-20" style="edgeStyle=orthogonalEdgeStyle;rounded=0;orthogonalLoop=1;jettySize=auto;html=1;entryX=0;entryY=0.5;entryDx=0;entryDy=0;" parent="1" source="ZwO_-n4kn-tjhwLUYsLI-14" target="ZwO_-n4kn-tjhwLUYsLI-19" edge="1">
                    <mxGeometry relative="1" as="geometry"/>
                </mxCell>
                <mxCell id="ZwO_-n4kn-tjhwLUYsLI-21" value="Upon Button&lt;br style=&quot;border-color: var(--border-color);&quot;&gt;Press" style="edgeLabel;html=1;align=center;verticalAlign=middle;resizable=0;points=[];" parent="ZwO_-n4kn-tjhwLUYsLI-20" vertex="1" connectable="0">
                    <mxGeometry x="0.2" y="-1" relative="1" as="geometry">
                        <mxPoint x="-12" y="-1" as="offset"/>
                    </mxGeometry>
                </mxCell>
                <mxCell id="ZwO_-n4kn-tjhwLUYsLI-14" value="The Web page will then display information pertaining to the sales order. Button displayed to invoice Sales Order." style="rounded=1;whiteSpace=wrap;html=1;absoluteArcSize=1;arcSize=14;strokeWidth=2;fillColor=#fff2cc;strokeColor=#d6b656;" parent="1" vertex="1">
                    <mxGeometry x="514.5" y="450" width="140" height="100" as="geometry"/>
                </mxCell>
                <mxCell id="ZwO_-n4kn-tjhwLUYsLI-16" value="The Web page will disable the ability to Invoice the Sales Order and display why. Reasons:&lt;br&gt;- Order not in correct status 8&lt;br&gt;- Does not have a detail ine to invoice&lt;br&gt;- Sales Order has a deposit" style="rounded=1;whiteSpace=wrap;html=1;absoluteArcSize=1;arcSize=14;strokeWidth=2;fillColor=#f8cecc;strokeColor=#b85450;" parent="1" vertex="1">
                    <mxGeometry x="490" y="620" width="180" height="120" as="geometry"/>
                </mxCell>
                <mxCell id="ZwO_-n4kn-tjhwLUYsLI-23" style="edgeStyle=orthogonalEdgeStyle;rounded=0;orthogonalLoop=1;jettySize=auto;html=1;exitX=1;exitY=0.5;exitDx=0;exitDy=0;entryX=0;entryY=0.5;entryDx=0;entryDy=0;" parent="1" source="ZwO_-n4kn-tjhwLUYsLI-19" target="ZwO_-n4kn-tjhwLUYsLI-9" edge="1">
                    <mxGeometry relative="1" as="geometry"/>
                </mxCell>
                <mxCell id="ZwO_-n4kn-tjhwLUYsLI-34" value="Upon Successful&lt;br style=&quot;border-color: var(--border-color);&quot;&gt;Invoice" style="edgeLabel;html=1;align=center;verticalAlign=middle;resizable=0;points=[];" parent="ZwO_-n4kn-tjhwLUYsLI-23" vertex="1" connectable="0">
                    <mxGeometry x="0.2976" y="-1" relative="1" as="geometry">
                        <mxPoint x="4" y="41" as="offset"/>
                    </mxGeometry>
                </mxCell>
                <mxCell id="ZwO_-n4kn-tjhwLUYsLI-29" style="edgeStyle=orthogonalEdgeStyle;rounded=0;orthogonalLoop=1;jettySize=auto;html=1;entryX=0.5;entryY=1;entryDx=0;entryDy=0;entryPerimeter=0;" parent="1" source="ZwO_-n4kn-tjhwLUYsLI-19" target="ZwO_-n4kn-tjhwLUYsLI-6" edge="1">
                    <mxGeometry relative="1" as="geometry"/>
                </mxCell>
                <mxCell id="ZwO_-n4kn-tjhwLUYsLI-30" value="On Success" style="edgeLabel;html=1;align=center;verticalAlign=middle;resizable=0;points=[];" parent="ZwO_-n4kn-tjhwLUYsLI-29" vertex="1" connectable="0">
                    <mxGeometry x="-0.2286" y="-2" relative="1" as="geometry">
                        <mxPoint x="-2" y="-7" as="offset"/>
                    </mxGeometry>
                </mxCell>
                <mxCell id="ZwO_-n4kn-tjhwLUYsLI-32" style="edgeStyle=orthogonalEdgeStyle;rounded=0;orthogonalLoop=1;jettySize=auto;html=1;entryX=0.5;entryY=0;entryDx=0;entryDy=0;" parent="1" source="ZwO_-n4kn-tjhwLUYsLI-19" target="ZwO_-n4kn-tjhwLUYsLI-31" edge="1">
                    <mxGeometry relative="1" as="geometry"/>
                </mxCell>
                <mxCell id="ZwO_-n4kn-tjhwLUYsLI-33" value="On Error" style="edgeLabel;html=1;align=center;verticalAlign=middle;resizable=0;points=[];" parent="ZwO_-n4kn-tjhwLUYsLI-32" vertex="1" connectable="0">
                    <mxGeometry x="-0.3048" y="5" relative="1" as="geometry">
                        <mxPoint as="offset"/>
                    </mxGeometry>
                </mxCell>
                <mxCell id="ZwO_-n4kn-tjhwLUYsLI-19" value="Upon button press, web page will communicate to Syspro to invoice Sales Order" style="rounded=1;whiteSpace=wrap;html=1;absoluteArcSize=1;arcSize=14;strokeWidth=2;fillColor=#fff2cc;strokeColor=#d6b656;" parent="1" vertex="1">
                    <mxGeometry x="760" y="450" width="140" height="100" as="geometry"/>
                </mxCell>
                <mxCell id="ZwO_-n4kn-tjhwLUYsLI-26" value="Message displays issue occured:&lt;br&gt;- Sales Order invalid&lt;br&gt;- Network issues" style="rounded=1;whiteSpace=wrap;html=1;absoluteArcSize=1;arcSize=14;strokeWidth=2;fillColor=#f8cecc;strokeColor=#b85450;" parent="1" vertex="1">
                    <mxGeometry x="255" y="620" width="160" height="100" as="geometry"/>
                </mxCell>
                <mxCell id="ZwO_-n4kn-tjhwLUYsLI-31" value="Error occured when invoicing:&lt;br&gt;- Message displaying response from Syspro" style="rounded=1;whiteSpace=wrap;html=1;absoluteArcSize=1;arcSize=14;strokeWidth=2;fillColor=#f8cecc;strokeColor=#b85450;" parent="1" vertex="1">
                    <mxGeometry x="740" y="620" width="180" height="70" as="geometry"/>
                </mxCell>
                <mxCell id="ZwO_-n4kn-tjhwLUYsLI-50" style="edgeStyle=orthogonalEdgeStyle;rounded=0;orthogonalLoop=1;jettySize=auto;html=1;entryX=0.5;entryY=1;entryDx=0;entryDy=0;" parent="1" source="ZwO_-n4kn-tjhwLUYsLI-36" target="ZwO_-n4kn-tjhwLUYsLI-48" edge="1">
                    <mxGeometry relative="1" as="geometry"/>
                </mxCell>
                <mxCell id="ZwO_-n4kn-tjhwLUYsLI-51" value="&lt;b&gt;Service Side&lt;/b&gt;" style="edgeLabel;html=1;align=center;verticalAlign=middle;resizable=0;points=[];" parent="ZwO_-n4kn-tjhwLUYsLI-50" vertex="1" connectable="0">
                    <mxGeometry x="-0.275" y="-3" relative="1" as="geometry">
                        <mxPoint x="-3" y="-11" as="offset"/>
                    </mxGeometry>
                </mxCell>
                <mxCell id="ZwO_-n4kn-tjhwLUYsLI-36" value="An email will be sent with the Invoice document to the customer." style="rounded=1;whiteSpace=wrap;html=1;absoluteArcSize=1;arcSize=14;strokeWidth=2;fillColor=#d5e8d4;strokeColor=#82b366;" parent="1" vertex="1">
                    <mxGeometry x="1260" y="300" width="210" height="100" as="geometry"/>
                </mxCell>
                <mxCell id="ZwO_-n4kn-tjhwLUYsLI-44" style="edgeStyle=orthogonalEdgeStyle;rounded=0;orthogonalLoop=1;jettySize=auto;html=1;entryX=0;entryY=0.5;entryDx=0;entryDy=0;" parent="1" source="ZwO_-n4kn-tjhwLUYsLI-38" target="ZwO_-n4kn-tjhwLUYsLI-43" edge="1">
                    <mxGeometry relative="1" as="geometry">
                        <Array as="points">
                            <mxPoint x="345" y="30"/>
                        </Array>
                    </mxGeometry>
                </mxCell>
                <mxCell id="ZwO_-n4kn-tjhwLUYsLI-38" value="Possible Issues:&lt;br&gt;- Network issues&lt;br&gt;- SQL Deadlock&lt;br&gt;&lt;i&gt;If issue occurs, service will proceed with normal operation.&lt;/i&gt;" style="rounded=1;whiteSpace=wrap;html=1;absoluteArcSize=1;arcSize=14;strokeWidth=2;fillColor=#f8cecc;strokeColor=#b85450;" parent="1" vertex="1">
                    <mxGeometry x="265" y="80" width="160" height="90" as="geometry"/>
                </mxCell>
                <mxCell id="ZwO_-n4kn-tjhwLUYsLI-45" style="edgeStyle=orthogonalEdgeStyle;rounded=0;orthogonalLoop=1;jettySize=auto;html=1;entryX=1;entryY=0.5;entryDx=0;entryDy=0;" parent="1" source="ZwO_-n4kn-tjhwLUYsLI-41" target="ZwO_-n4kn-tjhwLUYsLI-43" edge="1">
                    <mxGeometry relative="1" as="geometry">
                        <Array as="points">
                            <mxPoint x="625" y="30"/>
                        </Array>
                    </mxGeometry>
                </mxCell>
                <mxCell id="ZwO_-n4kn-tjhwLUYsLI-41" value="Possible Issues:&lt;br&gt;- Syspro encountered issue with dispatch note." style="rounded=1;whiteSpace=wrap;html=1;absoluteArcSize=1;arcSize=14;strokeWidth=2;fillColor=#f8cecc;strokeColor=#b85450;" parent="1" vertex="1">
                    <mxGeometry x="545" y="80" width="160" height="90" as="geometry"/>
                </mxCell>
                <mxCell id="ZwO_-n4kn-tjhwLUYsLI-43" value="ERROR Email to Gabriella White Developers" style="rounded=1;whiteSpace=wrap;html=1;absoluteArcSize=1;arcSize=14;strokeWidth=2;fillColor=#f8cecc;strokeColor=#b85450;" parent="1" vertex="1">
                    <mxGeometry x="400" width="160" height="60" as="geometry"/>
                </mxCell>
                <mxCell id="ZwO_-n4kn-tjhwLUYsLI-62" style="edgeStyle=orthogonalEdgeStyle;rounded=0;orthogonalLoop=1;jettySize=auto;html=1;entryX=0.5;entryY=1;entryDx=0;entryDy=0;" parent="1" source="ZwO_-n4kn-tjhwLUYsLI-46" target="ZwO_-n4kn-tjhwLUYsLI-61" edge="1">
                    <mxGeometry relative="1" as="geometry"/>
                </mxCell>
                <mxCell id="ZwO_-n4kn-tjhwLUYsLI-46" value="Possible Issues:&lt;br&gt;- Issue with Syspro Server Side printing" style="rounded=1;whiteSpace=wrap;html=1;absoluteArcSize=1;arcSize=14;strokeWidth=2;fillColor=#f8cecc;strokeColor=#b85450;" parent="1" vertex="1">
                    <mxGeometry x="995" y="170" width="160" height="90" as="geometry"/>
                </mxCell>
                <mxCell id="ZwO_-n4kn-tjhwLUYsLI-63" style="edgeStyle=orthogonalEdgeStyle;rounded=0;orthogonalLoop=1;jettySize=auto;html=1;entryX=0.5;entryY=1;entryDx=0;entryDy=0;" parent="1" source="ZwO_-n4kn-tjhwLUYsLI-48" target="ZwO_-n4kn-tjhwLUYsLI-61" edge="1">
                    <mxGeometry relative="1" as="geometry"/>
                </mxCell>
                <mxCell id="ZwO_-n4kn-tjhwLUYsLI-48" value="Possible Issues:&lt;br&gt;- Issue with SendGrid" style="rounded=1;whiteSpace=wrap;html=1;absoluteArcSize=1;arcSize=14;strokeWidth=2;fillColor=#f8cecc;strokeColor=#b85450;" parent="1" vertex="1">
                    <mxGeometry x="1285" y="170" width="160" height="90" as="geometry"/>
                </mxCell>
                <mxCell id="ZwO_-n4kn-tjhwLUYsLI-68" style="edgeStyle=orthogonalEdgeStyle;rounded=0;orthogonalLoop=1;jettySize=auto;html=1;entryX=0.5;entryY=0;entryDx=0;entryDy=0;" parent="1" source="ZwO_-n4kn-tjhwLUYsLI-54" target="ZwO_-n4kn-tjhwLUYsLI-57" edge="1">
                    <mxGeometry relative="1" as="geometry">
                        <Array as="points">
                            <mxPoint x="1075" y="540"/>
                            <mxPoint x="1220" y="540"/>
                            <mxPoint x="1220" y="600"/>
                            <mxPoint x="1140" y="600"/>
                        </Array>
                    </mxGeometry>
                </mxCell>
                <mxCell id="ZwO_-n4kn-tjhwLUYsLI-54" value="Possible Issues:&lt;br&gt;- Issue with Syspro Server Side printing&lt;br&gt;&lt;i&gt;This will result in the customer email not being sent out.&lt;/i&gt;" style="rounded=1;whiteSpace=wrap;html=1;absoluteArcSize=1;arcSize=14;strokeWidth=2;fillColor=#f8cecc;strokeColor=#b85450;" parent="1" vertex="1">
                    <mxGeometry x="980" y="440" width="190" height="90" as="geometry"/>
                </mxCell>
                <mxCell id="ZwO_-n4kn-tjhwLUYsLI-57" value="Message on Web Page notifying user" style="rounded=1;whiteSpace=wrap;html=1;absoluteArcSize=1;arcSize=14;strokeWidth=2;fillColor=#f8cecc;strokeColor=#b85450;" parent="1" vertex="1">
                    <mxGeometry x="1080" y="620" width="120" height="60" as="geometry"/>
                </mxCell>
                <mxCell id="ZwO_-n4kn-tjhwLUYsLI-58" value="Error Email to Gabriella White Developers and Accounting" style="rounded=1;whiteSpace=wrap;html=1;absoluteArcSize=1;arcSize=14;strokeWidth=2;fillColor=#f8cecc;strokeColor=#b85450;" parent="1" vertex="1">
                    <mxGeometry x="1240" y="620" width="160" height="57.5" as="geometry"/>
                </mxCell>
                <mxCell id="ZwO_-n4kn-tjhwLUYsLI-61" value="ERROR Email to Gabriella White developers and Accounting" style="rounded=1;whiteSpace=wrap;html=1;absoluteArcSize=1;arcSize=14;strokeWidth=2;fillColor=#f8cecc;strokeColor=#b85450;" parent="1" vertex="1">
                    <mxGeometry x="1140" width="160" height="90" as="geometry"/>
                </mxCell>
                <mxCell id="ZwO_-n4kn-tjhwLUYsLI-69" style="edgeStyle=orthogonalEdgeStyle;rounded=0;orthogonalLoop=1;jettySize=auto;html=1;entryX=0.5;entryY=0;entryDx=0;entryDy=0;exitX=0.5;exitY=1;exitDx=0;exitDy=0;" parent="1" source="ZwO_-n4kn-tjhwLUYsLI-64" target="ZwO_-n4kn-tjhwLUYsLI-58" edge="1">
                    <mxGeometry relative="1" as="geometry">
                        <Array as="points">
                            <mxPoint x="1365" y="540"/>
                            <mxPoint x="1220" y="540"/>
                            <mxPoint x="1220" y="600"/>
                            <mxPoint x="1320" y="600"/>
                        </Array>
                    </mxGeometry>
                </mxCell>
                <mxCell id="ZwO_-n4kn-tjhwLUYsLI-64" value="Possible Issues:&lt;br&gt;- Issue with SendGrid" style="rounded=1;whiteSpace=wrap;html=1;absoluteArcSize=1;arcSize=14;strokeWidth=2;fillColor=#f8cecc;strokeColor=#b85450;" parent="1" vertex="1">
                    <mxGeometry x="1285" y="440" width="160" height="90" as="geometry"/>
                </mxCell>
                <mxCell id="ZwO_-n4kn-tjhwLUYsLI-66" style="edgeStyle=orthogonalEdgeStyle;rounded=0;orthogonalLoop=1;jettySize=auto;html=1;entryX=0.5;entryY=0;entryDx=0;entryDy=0;exitX=0.5;exitY=1;exitDx=0;exitDy=0;" parent="1" source="ZwO_-n4kn-tjhwLUYsLI-36" target="ZwO_-n4kn-tjhwLUYsLI-64" edge="1">
                    <mxGeometry relative="1" as="geometry">
                        <mxPoint x="1270" y="420" as="sourcePoint"/>
                        <mxPoint x="1085" y="449.9999999999998" as="targetPoint"/>
                    </mxGeometry>
                </mxCell>
                <mxCell id="ZwO_-n4kn-tjhwLUYsLI-67" value="&lt;b&gt;Web Page Side&lt;/b&gt;" style="edgeLabel;html=1;align=center;verticalAlign=middle;resizable=0;points=[];" parent="ZwO_-n4kn-tjhwLUYsLI-66" vertex="1" connectable="0">
                    <mxGeometry x="-0.2875" relative="1" as="geometry">
                        <mxPoint as="offset"/>
                    </mxGeometry>
                </mxCell>
            </root>
        </mxGraphModel>
    </diagram>
</mxfile>